# xmcd
#
# Track frame offsets:
#	150
#	26001
#	48842
#	64616
#	83470
#	97918
#	118049
#	140407
#	162291
#	181159
#	200114
#	223155
#	234511
#	260755
#	279563
#	301741
#
# Disc length: 4351 seconds
#
# Revision: 1
# Processed by: cddbd v1.4PL0 Copyright (c) Steve Scherf et al.
# Submitted via: audiograbber 1.81.03
#
DISCID=db10fd10
DTITLE=Various Artist - Earwig Music - CD 2
DYEAR=1999
DGENRE=Blues
TTITLE0=Lovie Lee - Tell Me That You Love Me
TTITLE1=Homesick James Williamson - What Done Got Into That Woman
TTITLE2=Willie Anderson - 69th Street Bounce
TTITLE3=Big Leon Brooks - Please Mr. Catfish
TTITLE4=Louisiana Red - Parole Blues
TTITLE5=Aron Burton - I'm Just A Natural Man
TTITLE6=Lil Ed and Dave Weld - North Carolina Bound
TTITLE7=Johnny Yard Dog Jones - You Can't Call The Blues
TTITLE8=Liz Mandville Greeson - Life Sentence Of The Blues
TTITLE9=David Honeyboy Edwards and Carey Bell - Every Now And Then
TTITLE10=Willie Kent - I Wanna Get Married
TTITLE11=Sunnyland Slim and Bonnie Lee - She Got A Thing Goin' On
TTITLE12=Louisiana Red - Red's Vision
TTITLE13=Johnny Drummer - I Wanna Get In Your Head, Before I Get In Your Bed
TTITLE14=Liz Mandville Greeson - The Friendly Stranger
TTITLE15=Louisiana Red - Millennium Blues
EXTD=
EXTT0=
EXTT1=
EXTT2=
EXTT3=
EXTT4=
EXTT5=
EXTT6=
EXTT7=
EXTT8=
EXTT9=
EXTT10=
EXTT11=
EXTT12=
EXTT13=
EXTT14=
EXTT15=
PLAYORDER=
